HIERARCHY
ROOT Hips
{
 OFFSET 0.000000 0.000000 0.000000
 CHANNELS 6 Xposition Yposition Zposition Yrotation Xrotation Zrotation
 JOINT Chest
 {
  OFFSET 0.000000 10.388337 0.005184
  CHANNELS 3 Yrotation Xrotation Zrotation
  JOINT Chest2
  {
   OFFSET 0.000000 10.458247 -0.010579
   CHANNELS 3 Yrotation Xrotation Zrotation
   JOINT Chest3
   {
    OFFSET 0.000000 10.415828 0.000000
    CHANNELS 3 Yrotation Xrotation Zrotation
    JOINT Chest4
    {
     OFFSET 0.000000 10.405206 0.000000
     CHANNELS 3 Yrotation Xrotation Zrotation
     JOINT Neck
     {
      OFFSET 0.000000 15.720090 0.000000
      CHANNELS 3 Yrotation Xrotation Zrotation
      JOINT Head
      {
       OFFSET 0.000000 9.732643 -0.022378
       CHANNELS 3 Yrotation Xrotation Zrotation
       End Site
       {
        OFFSET 0.000000 18.603619 -0.011814
       }
      }
     }
     JOINT RightCollar
     {
      OFFSET -3.167735 10.388953 0.000000
      CHANNELS 3 Yrotation Xrotation Zrotation
      JOINT RightShoulder
      {
       OFFSET -14.584825 0.000000 0.000000
       CHANNELS 3 Yrotation Xrotation Zrotation
       JOINT RightElbow
       {
        OFFSET 0.000000 -31.921689 0.000000
        CHANNELS 3 Yrotation Xrotation Zrotation
        JOINT RightWrist
        {
         OFFSET 0.000000 -25.835217 0.000000
         CHANNELS 3 Yrotation Xrotation Zrotation
         End Site
         {
          OFFSET 0.000000 -19.128920 0.000000
         }
        }
       }
      }
     }
     JOINT LeftCollar
     {
      OFFSET 3.167735 10.388953 0.000000
      CHANNELS 3 Yrotation Xrotation Zrotation
      JOINT LeftShoulder
      {
       OFFSET 14.584825 0.000000 0.000000
       CHANNELS 3 Yrotation Xrotation Zrotation
       JOINT LeftElbow
       {
        OFFSET 0.000000 -31.921689 0.000000
        CHANNELS 3 Yrotation Xrotation Zrotation
        JOINT LeftWrist
        {
         OFFSET 0.000000 -25.835217 0.000000
         CHANNELS 3 Yrotation Xrotation Zrotation
         End Site
         {
          OFFSET 0.000000 -19.128920 0.000000
         }
        }
       }
      }
     }
    }
   }
  }
 }
 JOINT RightHip
 {
  OFFSET -8.403278 -0.025659 -0.002592
  CHANNELS 3 Yrotation Xrotation Zrotation
  JOINT RightKnee
  {
   OFFSET 0.000000 -44.040977 0.002477
   CHANNELS 3 Yrotation Xrotation Zrotation
   JOINT RightAnkle
   {
    OFFSET 0.000000 -42.951162 0.004189
    CHANNELS 3 Yrotation Xrotation Zrotation
    JOINT RightToe
    {
     OFFSET 0.000000 -5.494238 12.197485
     CHANNELS 3 Yrotation Xrotation Zrotation
     End Site
     {
      OFFSET 0.000000 -1.538716 6.371628
     }
    }
   }
  }
 }
 JOINT LeftHip
 {
  OFFSET 8.403278 -0.025659 -0.002592
  CHANNELS 3 Yrotation Xrotation Zrotation
  JOINT LeftKnee
  {
   OFFSET 0.000000 -44.040977 0.002477
   CHANNELS 3 Yrotation Xrotation Zrotation
   JOINT LeftAnkle
   {
    OFFSET 0.000000 -42.951162 0.004189
    CHANNELS 3 Yrotation Xrotation Zrotation
    JOINT LeftToe
    {
     OFFSET 0.000000 -5.494238 12.197485
     CHANNELS 3 Yrotation Xrotation Zrotation
     End Site
     {
      OFFSET 0.000000 -1.538716 6.371628
     }
    }
   }
  }
 }
}
MOTION
Frames: 6
Frame Time: 0.008333
58.577679 55.610012 431.468512 42.722893 14.327936 -43.869677 -0.067560 20.651235 7.225721 -0.287093 2.932368 0.736950 -0.447736 4.766357 1.191157 -1.194307 18.101574 4.430843 14.322020 14.475999 0.360704 26.686097 -7.708528 -4.576846 2.441025 6.373067 -9.943434 10.332659 -28.441261 -38.461457 -28.280467 -41.463805 46.776835 -8.245026 -4.127553 6.098680 -3.623662 -4.235687 13.468857 -18.446927 -19.414212 54.537586 35.041843 -30.750580 -140.707428 11.557242 -10.448036 -9.992097 -32.740513 -61.300721 29.986949 90.514189 68.378855 94.572434 -12.416222 -32.225538 8.679490 0.647918 -8.424373 12.879770 48.492877 -21.892095 -24.981541 82.946525 70.945847 86.262939 -25.311251 -6.619334 -18.395759 -1.380188 -2.000319 -0.606650
59.489926 55.320746 430.664804 41.665496 14.155701 -44.908200 0.131975 20.547682 7.297397 -0.270682 2.938674 0.743213 -0.420801 4.776004 1.201636 -1.083216 18.115860 4.479299 14.384720 14.220952 0.512125 26.788146 -8.197806 -4.373472 2.384939 6.375357 -9.930751 10.449290 -28.532372 -39.054682 -28.809852 -41.169509 46.913108 -8.396992 -4.365045 6.304784 -3.717119 -4.014163 13.573463 -18.400041 -19.547224 53.812321 36.049502 -31.410869 -140.579275 11.371121 -10.105085 -9.857146 -33.105376 -61.037051 29.989506 88.676108 68.294859 92.866336 -12.357887 -31.683706 8.920731 0.618252 -8.152390 13.403870 48.959931 -21.337672 -25.573373 79.436690 70.307831 83.362065 -24.838933 -6.565810 -18.116560 -1.387338 -2.087056 -0.637814
60.418801 55.019747 429.847408 40.605632 13.966781 -45.993812 0.317570 20.408675 7.375436 -0.257159 2.943497 0.748186 -0.398620 4.783372 1.209973 -0.992115 18.126470 4.518286 14.455941 14.015409 0.651649 26.902514 -8.592469 -4.184395 2.395818 6.427610 -9.908599 10.535748 -28.610239 -39.612982 -29.365097 -40.808310 47.022248 -8.628459 -4.657831 6.528752 -3.762092 -3.779084 13.591810 -18.367220 -19.835617 53.049243 37.172825 -32.177853 -140.461688 11.089754 -9.759439 -9.536749 -33.429813 -60.784797 29.959370 86.704037 68.197960 91.074504 -12.238994 -31.006277 9.155750 0.560639 -7.951143 13.928857 49.418382 -20.868301 -26.139205 76.127594 69.684931 80.699588 -24.300401 -6.468202 -17.853863 -1.377926 -2.240448 -0.644237
61.376774 54.703199 429.019600 39.573304 13.711963 -47.121702 0.480965 20.289568 7.446696 -0.246378 2.947475 0.751825 -0.380945 4.789450 1.216088 -0.919844 18.135344 4.547154 14.542968 13.851316 0.782198 27.043061 -8.906694 -4.008500 2.490423 6.523430 -9.878299 10.584229 -28.675802 -40.111908 -29.909993 -40.382384 47.085854 -8.904622 -5.035458 6.773668 -3.728586 -3.526627 13.547239 -18.332975 -20.310970 52.225278 38.395648 -33.043388 -140.408923 10.751210 -9.578728 -8.948372 -33.667914 -60.466726 29.840350 84.589324 68.139492 89.163875 -11.973535 -30.218161 9.402121 0.460065 -7.795847 14.431256 49.850230 -20.448470 -26.613029 73.001172 69.045739 78.238465 -23.769517 -6.325678 -17.655826 -1.327761 -2.428075 -0.619546
62.374201 54.368311 428.182651 38.601226 13.383431 -48.290361 0.628444 20.220337 7.516651 -0.234378 2.953054 0.756023 -0.361255 4.797979 1.223104 -0.839146 18.147912 4.579050 14.629256 13.710658 0.908323 27.180059 -9.177242 -3.835532 2.617058 6.637582 -9.834073 10.558618 -28.756854 -40.507316 -30.362303 -39.905380 47.069301 -9.205066 -5.544003 7.036741 -3.696223 -3.302545 13.422689 -18.291713 -20.914082 51.375256 39.599736 -33.933032 -140.443118 10.412507 -9.679911 -8.056545 -33.814351 -60.028036 29.597356 82.285020 68.129079 87.080308 -11.532606 -29.349368 9.660978 0.397087 -7.314862 14.152576 50.215101 -20.075011 -26.965227 70.063261 68.390238 75.954957 -23.238990 -6.126437 -17.526464 -1.252043 -2.624874 -0.575297
63.417353 54.014628 427.335612 37.698618 13.001518 -49.515608 0.782585 20.198066 7.613714 -0.215558 2.961406 0.762911 -0.330378 4.810722 1.234607 -0.712783 18.165753 4.631065 14.684169 13.578893 1.033313 27.257183 -9.436573 -3.651754 2.674202 6.740474 -9.780394 10.447698 -28.884644 -40.762205 -30.657943 -39.393687 46.939673 -9.505205 -6.241677 7.306136 -3.771985 -3.138676 13.211167 -18.244317 -21.563570 50.544180 40.612054 -34.734347 -140.531734 10.124615 -10.086898 -6.926289 -33.877142 -59.452792 29.228015 79.711499 68.139274 84.760770 -10.939214 -28.416420 9.930994 0.421786 -6.246919 12.456279 50.497102 -19.781472 -27.189685 67.294930 67.748158 73.819641 -22.707355 -5.831829 -17.472379 -1.148716 -2.836172 -0.511051
